<svg width="24" height="24" viewBox="0 0 24 24" fill="none" xmlns="http://www.w3.org/2000/svg">
<path fill-rule="evenodd" clip-rule="evenodd" d="M19.937 8.68L19.9276 8.65196C19.9204 8.62974 19.9132 8.60787 19.904 8.586C19.855 8.48 19.794 8.379 19.708 8.293L13.708 2.293C13.622 2.207 13.521 2.146 13.415 2.097C13.3943 2.08736 13.3727 2.08056 13.3508 2.07367C13.3409 2.07056 13.331 2.06742 13.321 2.064C13.237 2.036 13.151 2.018 13.062 2.013C13.0519 2.01208 13.0424 2.00925 13.033 2.00647C13.0221 2.0032 13.0113 2 13 2H6C4.897 2 4 2.897 4 4V20C4 21.103 4.897 22 6 22H18C19.103 22 20 21.103 20 20V9C20 8.98867 19.9968 8.97792 19.9935 8.96697C19.9907 8.95762 19.9879 8.94813 19.987 8.938C19.982 8.85 19.965 8.764 19.937 8.68ZM13 4V9H18L13 4ZM8.98852 17.6564C8.98852 17.4581 8.94218 17.3088 8.8495 17.2086C8.75884 17.1061 8.59263 17.0002 8.35086 16.891C7.90964 16.7061 7.59232 16.49 7.39891 16.2426C7.2055 15.9931 7.10879 15.699 7.10879 15.3603C7.10879 14.9503 7.23975 14.6217 7.50166 14.3743C7.76559 14.1248 8.10003 14 8.50499 14C8.77496 14 9.01571 14.0635 9.22726 14.1905C9.4388 14.3153 9.60099 14.4924 9.71381 14.7219C9.82865 14.9514 9.88607 15.2121 9.88607 15.504H9.0006C9.0006 15.2767 8.95628 15.1041 8.86763 14.986C8.781 14.8656 8.65508 14.8055 8.48988 14.8055C8.33474 14.8055 8.21386 14.8567 8.12723 14.9592C8.0406 15.0595 7.99728 15.1954 7.99728 15.367C7.99728 15.5007 8.04563 15.6221 8.14234 15.7313C8.23905 15.8382 8.4103 15.9496 8.65609 16.0655C9.08522 16.2371 9.39649 16.4476 9.58991 16.6972C9.78533 16.9467 9.88305 17.2643 9.88305 17.6497C9.88305 18.0731 9.76116 18.404 9.51738 18.6424C9.2736 18.8808 8.94218 19 8.52312 19C8.23905 19 7.98016 18.9354 7.74645 18.8062C7.51274 18.6769 7.3294 18.492 7.19643 18.2513C7.06548 18.0107 7 17.7266 7 17.3991H7.89151C7.89151 17.6798 7.94087 17.8837 8.03959 18.0107C8.13831 18.1377 8.29949 18.2012 8.52312 18.2012C8.83338 18.2012 8.98852 18.0196 8.98852 17.6564ZM11.9048 17.5963L12.6452 14.0668H13.6364L12.3672 18.9332H11.4424L10.1822 14.0668H11.1674L11.9048 17.5963ZM16.3684 18.8463C16.6182 18.7415 16.8287 18.5867 17 18.3817V16.373H15.4859V17.115H16.1085V18.0074L16.0299 18.0675C15.9211 18.1455 15.7791 18.1845 15.6038 18.1845C15.3298 18.1845 15.1324 18.0842 15.0115 17.8837C14.8926 17.6809 14.8332 17.3578 14.8332 16.9144V16.0321C14.8372 15.6087 14.8936 15.3001 15.0024 15.1063C15.1112 14.9124 15.2855 14.8155 15.5252 14.8155C15.7227 14.8155 15.8677 14.8723 15.9604 14.986C16.0531 15.0974 16.1115 15.3079 16.1357 15.6176H17C16.9617 15.0606 16.8207 14.6517 16.5769 14.391C16.3351 14.1303 15.9755 14 15.498 14C14.9903 14 14.6035 14.1816 14.3376 14.5448C14.0736 14.9057 13.9417 15.4216 13.9417 16.0922V16.9679C13.9497 17.6297 14.0938 18.1344 14.3738 18.482C14.6539 18.8273 15.0467 19 15.5524 19C15.8486 19 16.1206 18.9488 16.3684 18.8463Z" fill="black"/>
</svg>
